# xmcd
#
# Track frame offsets:
#	150
#	10182
#	22410
#	30903
#	44036
#	53383
#	67966
#	80143
#	89604
#	101020
#	115140
#	126523
#	141559
#	153822
#	164309
#	179747
#	191681
#	203194
#	216337
#	228092
#	239207
#
# Disc length: 3347 seconds
#
# Revision: 1
# Processed by: cddbd v1.5.2PL0 Copyright (c) Steve Scherf et al.
# Submitted via: audiograbber 1.83.01
#
DISCID=360d1115
DTITLE=Various Artist - 125 Country Hits CD 4
DYEAR=1900
DGENRE=Country
TTITLE0=FERLIN HUSKY - The Wings Of A Dove
TTITLE1=JIM REEVES - Your Old Love Letters
TTITLE2=WAYLON JENNINGS - Abilene
TTITLE3=BILLIE JO SPEARS - It Coulda Been Me
TTITLE4=DOLLY PARTON - Girl Left Alone
TTITLE5=LYNN ANDERSON - Faithless Love
TTITLE6=ROY ACUFF - Blue Eyes Crying In The Rain
TTITLE7=FRANKIE LAINE - Blazing Saddles
TTITLE8=DONNA FARGO - Superman
TTITLE9=CONWAY TWITTY - You've Never Been This Far Before
TTITLE10=DON GIBSON - Sea Of Heartbreak
TTITLE11=JOHN ANDERSON - Country Comfort
TTITLE12=WILLIE NELSON - Shelter Of Your Arms
TTITLE13=ROGER MILLER - Please Release Me
TTITLE14=KENNY ROGERS - My Washington Woman
TTITLE15=SKEETER DAVIS - The End Of The World
TTITLE16=KITTY WELLS - Honky Tonk Waltz
TTITLE17=COWBOY COPAS - Breeze
TTITLE18=SKEETER DAVIS - I Can't Help You (I'm Falling Too)
TTITLE19=ANNE MURRAY - The Last Thing On My Mind
TTITLE20=WILLIE NELSON - Night Life
EXTD=
EXTT0=
EXTT1=
EXTT2=
EXTT3=
EXTT4=
EXTT5=
EXTT6=
EXTT7=
EXTT8=
EXTT9=
EXTT10=
EXTT11=
EXTT12=
EXTT13=
EXTT14=
EXTT15=
EXTT16=
EXTT17=
EXTT18=
EXTT19=
EXTT20=
PLAYORDER=
